<mxfile host="app.diagrams.net" modified="2024-05-11T23:33:08.583Z" agent="Mozilla/5.0 (Windows NT 10.0; Win64; x64; rv:125.0) Gecko/20100101 Firefox/125.0" version="23.1.7" etag="foH6qmoiR0oLXpScujUV" type="github">
  <diagram name="PÃ¡gina-1" id="kabeAYcYwyWmEZEn8cq9">
    <mxGraphModel>
      <root>
        <mxCell id="0" />
        <mxCell id="1" parent="0" />
      </root>
    </mxGraphModel>
  </diagram>
</mxfile>
